<?xml version="1.0" encoding="UTF-8"?>
<svg xmlns="http://www.w3.org/2000/svg" xmlns:xlink="http://www.w3.org/1999/xlink" width="220px" height="220px" viewBox="0 0 220 220" version="1.1">
<g id="surface1">
<path style=" stroke:none;fill-rule:nonzero;fill:rgb(0%,0%,0%);fill-opacity:1;" d="M 110 3.4375 C 51.132812 3.4375 3.4375 51.132812 3.4375 110 C 3.4375 168.867188 51.132812 216.5625 110 216.5625 C 168.867188 216.5625 216.5625 168.867188 216.5625 110 C 216.5625 51.132812 168.867188 3.4375 110 3.4375 Z M 110 195.9375 C 62.519531 195.9375 24.0625 157.480469 24.0625 110 C 24.0625 62.519531 62.519531 24.0625 110 24.0625 C 157.480469 24.0625 195.9375 62.519531 195.9375 110 C 195.9375 157.480469 157.480469 195.9375 110 195.9375 Z M 151.25 75.625 L 151.25 144.375 C 151.25 148.15625 148.15625 151.25 144.375 151.25 L 123.75 151.25 C 119.96875 151.25 116.875 148.15625 116.875 144.375 L 116.875 75.625 C 116.875 71.84375 119.96875 68.75 123.75 68.75 L 144.375 68.75 C 148.15625 68.75 151.25 71.84375 151.25 75.625 Z M 103.125 75.625 L 103.125 144.375 C 103.125 148.15625 100.03125 151.25 96.25 151.25 L 75.625 151.25 C 71.84375 151.25 68.75 148.15625 68.75 144.375 L 68.75 75.625 C 68.75 71.84375 71.84375 68.75 75.625 68.75 L 96.25 68.75 C 100.03125 68.75 103.125 71.84375 103.125 75.625 Z M 103.125 75.625 "/>
</g>
</svg>
