<svg xmlns="http://www.w3.org/2000/svg">
  <symbol id="logo" viewBox="0 0 49 26">
      <path d="M49 26H0L24.5 0L49 26ZM13.3075 13.1309L16.6442 16.6702L19.981 13.1309L16.6442 9.58115L13.3075 13.1309ZM16.6442 25.0052L19.981 21.466L16.6442 17.9162L13.3075 21.466L16.6442 25.0052ZM32.4083 25.0052L35.745 21.466L32.4083 17.9162L29.019 21.466L32.4083 25.0052ZM28.4673 5.40314C28.4473 5.43762 28.4207 5.46941 28.3885 5.49738C27.3507 6.6178 26.2997 7.73822 25.2357 8.84817C25.1437 8.94241 25.2357 9.00524 25.2357 9.08901L28.3097 12.356L28.4542 12.4921L31.7909 8.96335L28.4673 5.40314ZM8.78847 25.0052L8.91984 24.8691L11.9938 21.6126C12.0428 21.5717 12.0702 21.5173 12.0702 21.4607C12.0702 21.4042 12.0428 21.3498 11.9938 21.3089C11.0611 20.3456 10.1547 19.3613 9.23512 18.3874L8.78847 17.9162L5.45174 21.466L8.78847 25.0052ZM17.2354 8.95288L20.5721 12.4921L20.6772 12.3979L23.8169 9.06806C23.922 8.95288 23.8169 8.89005 23.8169 8.80628L20.7429 5.56021L20.6115 5.42408L17.2354 8.95288ZM17.2354 17.3298L20.5721 20.8691L20.7429 20.7016C21.7413 19.6545 22.7528 18.6073 23.7643 17.4869C23.7926 17.4663 23.8152 17.4412 23.8307 17.4133C23.8461 17.3853 23.8541 17.3551 23.8541 17.3246C23.8541 17.2941 23.8461 17.2639 23.8307 17.2359C23.8152 17.208 23.7926 17.1829 23.7643 17.1623C22.8185 16.1675 21.8727 15.1728 20.9399 14.1675L20.5721 13.7906L17.2354 17.3298ZM32.9995 17.3298L36.3362 20.8691L39.6729 17.3298L36.3362 13.7906L32.9995 17.3298ZM28.4673 13.7801V13.8534L25.3013 17.2147C25.1962 17.3089 25.2357 17.3717 25.3013 17.4555L28.244 20.5969C28.3228 20.6911 28.4147 20.7853 28.5198 20.8901L31.8566 17.3508L28.4673 13.7801ZM12.7295 20.8482C12.7453 20.8175 12.7675 20.7892 12.7952 20.7644L15.9611 17.4031C16.0531 17.2984 15.9611 17.2461 15.9611 17.1623L12.8477 13.8953C12.8069 13.8484 12.7583 13.8061 12.7032 13.7696L9.37962 17.2984L12.7295 20.8482ZM32.3558 16.6597L35.6925 13.1204L32.3558 9.59162L29.019 13.1309L32.3558 16.6597ZM24.4737 8.28272L27.8105 4.74346L24.5263 1.27749H24.4606L21.2552 4.71204C21.2354 4.73712 21.2249 4.76616 21.2249 4.79581C21.2249 4.82546 21.2354 4.8545 21.2552 4.87958L24.4737 8.28272ZM24.4737 16.6597L27.8105 13.1204L24.5 9.58115L21.1633 13.1309L24.4737 16.6597ZM24.4737 25.0366L27.8105 21.4974L24.4737 17.9476L21.1633 21.466L24.4737 25.0366ZM40.2378 25.0366L43.5745 21.4974L40.2509 17.9791H40.1853L36.9668 21.3613C36.8617 21.4764 36.9668 21.5288 36.9668 21.6021L39.5941 24.4398L40.2378 25.0366ZM1.89169 25.2356H7.88204L4.91314 22.0942L1.89169 25.2356ZM41.1705 25.2356H47.1083L44.1394 22.0942L41.1705 25.2356ZM23.5542 25.2356L20.5721 22.0942L17.5901 25.2356H23.5542ZM33.3147 25.2356H39.2525L36.2836 22.0942L33.3147 25.2356ZM31.3968 25.2356L28.4279 22.0942L25.459 25.2356H31.3968ZM15.6327 25.2356L12.6638 22.0942L9.69491 25.2356H15.6327Z"/>
  </symbol>
  <symbol id="youtube" viewBox="0 0 24 24">
      <path
        d="M10.03 15.38V8.62L15.97 12L10.03 15.38ZM23.23 6.5C23.1026 6.01772 22.8508 5.57733 22.4998 5.22285C22.1488 4.86838 21.711 4.61222 21.23 4.48C19.46 4 12.35 4 12.35 4C12.35 4 5.25 4 3.48 4.48C2.99901 4.61222 2.56115 4.86838 2.21018 5.22285C1.85921 5.57733 1.60743 6.01772 1.48 6.5C1 8.28 1 12 1 12C1 12 1 15.72 1.47 17.5C1.5983 17.9835 1.85159 18.4247 2.20441 18.7793C2.55723 19.1338 2.99717 19.3893 3.48 19.52C5.25 20 12.36 20 12.36 20C12.36 20 19.46 20 21.23 19.52C21.711 19.3878 22.1488 19.1316 22.4998 18.7771C22.8508 18.4227 23.1026 17.9823 23.23 17.5C23.71 15.72 23.71 12 23.71 12C23.71 12 23.71 8.28 23.24 6.5H23.23Z"/>
  </symbol>
  <symbol id="instagram" viewBox="0 0 24 24">
    <path d="M13.0202 2C14.8202 2 15.2002 2.02 16.1202 2.06C17.1802 2.11 17.9102 2.28 18.5402 2.53C19.2002 2.78 19.7602 3.13 20.3102 3.68C20.8702 4.23 21.2102 4.79 21.4702 5.45C21.7202 6.08 21.8802 6.81 21.9302 7.88C21.9802 8.83 21.9902 9.2 21.9902 11.2V12.8C21.9902 14.8 21.9802 15.17 21.9302 16.12C21.9144 16.9468 21.7589 17.7651 21.4702 18.54C21.2102 19.2 20.8702 19.76 20.3202 20.31C19.7602 20.87 19.2002 21.21 18.5402 21.47C17.9102 21.72 17.1802 21.88 16.1202 21.93C15.1702 21.98 14.7902 21.99 12.7902 21.99H11.2002C9.20015 21.99 8.83015 21.98 7.87015 21.93C7.04333 21.9141 6.22515 21.7586 5.45015 21.47C4.78376 21.2195 4.17981 20.8271 3.68015 20.32C3.16796 19.8186 2.77199 19.211 2.52015 18.54C2.23177 17.765 2.07626 16.9468 2.06015 16.12C2.01113 15.0874 1.99112 14.0537 2.00015 13.02V10.97C2.00015 9.17 2.02015 8.79 2.06015 7.87C2.11015 6.81 2.28015 6.08 2.52015 5.45C2.78015 4.79 3.12015 4.23 3.68015 3.68C4.17533 3.16743 4.78059 2.77418 5.45015 2.53C6.22461 2.23821 7.04278 2.07931 7.87015 2.06C8.79015 2.02 9.17015 2 10.9702 2H13.0202ZM13.0402 3.8H10.9502C9.22015 3.8 8.85015 3.82 7.95015 3.86C6.98015 3.9 6.45015 4.06 6.10015 4.2C5.63015 4.38 5.30015 4.6 4.95015 4.95C4.60015 5.3 4.38015 5.63 4.20015 6.1C4.07015 6.45 3.90015 6.98 3.86015 7.96C3.82015 8.86 3.80015 9.22 3.80015 10.96V13.04C3.80015 14.78 3.82015 15.14 3.86015 16.04C3.90015 17.01 4.06015 17.54 4.20015 17.89C4.38015 18.36 4.60015 18.69 4.95015 19.04C5.30015 19.39 5.63015 19.61 6.10015 19.79C6.45015 19.93 6.98015 20.09 7.96015 20.13C8.93015 20.18 9.28015 20.19 11.4402 20.19H12.5502C14.7202 20.19 15.0602 20.18 16.0402 20.13C17.0102 20.09 17.5402 19.93 17.8902 19.79C18.3602 19.61 18.6902 19.39 19.0402 19.04C19.3902 18.69 19.6102 18.36 19.7902 17.89C19.9302 17.54 20.0902 17.01 20.1302 16.04C20.1802 15.06 20.1902 14.72 20.1902 12.55V11.45C20.1902 9.28 20.1802 8.93 20.1302 7.95C20.0902 6.98 19.9302 6.45 19.7902 6.1C19.6292 5.66543 19.373 5.27246 19.0402 4.95C18.7179 4.61692 18.3249 4.3606 17.8902 4.2C17.2971 3.98317 16.6716 3.86822 16.0402 3.86C15.0409 3.81227 14.0405 3.79226 13.0402 3.8ZM12.0002 6.86C13.362 6.86 14.6681 7.40101 15.6311 8.36401C16.5941 9.32701 17.1352 10.6331 17.1352 11.995C17.1352 13.3569 16.5941 14.663 15.6311 15.626C14.6681 16.589 13.362 17.13 12.0002 17.13C10.6383 17.13 9.33216 16.589 8.36916 15.626C7.40616 14.663 6.86515 13.3569 6.86515 11.995C6.86515 10.6331 7.40616 9.32701 8.36916 8.36401C9.33216 7.40101 10.6383 6.86 12.0002 6.86ZM12.0002 8.66C11.1157 8.66 10.2674 9.01136 9.64195 9.6368C9.01652 10.2622 8.66515 11.1105 8.66515 11.995C8.66515 12.8795 9.01652 13.7278 9.64195 14.3532C10.2674 14.9786 11.1157 15.33 12.0002 15.33C12.8847 15.33 13.7329 14.9786 14.3584 14.3532C14.9838 13.7278 15.3352 12.8795 15.3352 11.995C15.3352 11.1105 14.9838 10.2622 14.3584 9.6368C13.7329 9.01136 12.8847 8.66 12.0002 8.66ZM17.3302 5.46C17.6484 5.46 17.9536 5.58643 18.1787 5.81147C18.4037 6.03652 18.5302 6.34174 18.5302 6.66C18.5302 6.97826 18.4037 7.28348 18.1787 7.50853C17.9536 7.73357 17.6484 7.86 17.3302 7.86C17.0119 7.86 16.7067 7.73357 16.4816 7.50853C16.2566 7.28348 16.1302 6.97826 16.1302 6.66C16.1302 6.34174 16.2566 6.03652 16.4816 5.81147C16.7067 5.58643 17.0119 5.46 17.3302 5.46Z"/>
  </symbol>
  <symbol id="facebook" viewBox="0 0 24 24">
    <path d="M9.78 22L9.75 13.25H6V9.5H9.75V7C9.75 3.63 11.84 2 14.85 2C16.29 2 17.53 2.1 17.89 2.15V5.68H15.8C14.17 5.68 13.85 6.46 13.85 7.6V9.5H18.5L17.25 13.25H13.85V22H9.78Z"/>
  </symbol>
  <symbol id="twitter" viewBox="0 0 24 24">
    <path d="M22 5.88C21.25 6.25 20.5 6.38 19.62 6.5C20.5 6 21.12 5.25 21.37 4.25C20.5606 4.73131 19.6743 5.06959 18.75 5.25C17.9485 4.46227 16.8737 4.01446 15.75 4C13.62 4 11.75 5.88 11.75 8.13C11.75 8.5 11.75 8.75 11.88 9C10.2422 8.93823 8.63643 8.52707 7.17046 7.79408C5.70448 7.0611 4.41212 6.02321 3.38 4.75C3.00812 5.39563 2.83425 6.13634 2.88 6.88C2.89162 7.55196 3.06825 8.21077 3.39434 8.79842C3.72043 9.38608 4.18597 9.88456 4.75 10.25C4.12 10.25 3.5 10 2.87 9.75C2.87 11.75 4.25 13.38 6.12 13.75C5.75 13.88 5.37 13.88 5 13.88C4.75 13.88 4.5 13.88 4.25 13.75C4.75 15.38 6.25 16.63 8.13 16.63C6.67779 17.7963 4.8622 18.4156 3 18.38H2C3.87496 19.5591 6.03554 20.2056 8.25 20.25C15.75 20.25 19.88 14 19.88 8.62V8.12C20.7387 7.53355 21.4617 6.76969 22 5.88Z"/>
  </symbol>
  <symbol id="pinterest" viewBox="0 0 20 20">
    <path d="M10.0002 0C7.67571 0.00823729 5.42667 0.826025 3.63977 2.31277C1.85286 3.79952 0.63972 5.86234 0.208905 8.1466C-0.221909 10.4309 0.156518 12.7939 1.27913 14.8293C2.40174 16.8648 4.1984 18.4456 6.36023 19.3C6.26023 18.51 6.19023 17.3 6.39023 16.43L7.56023 11.46C7.56023 11.46 7.26023 10.86 7.26023 9.98C7.26023 8.59 8.07023 7.56 9.08023 7.56C9.93023 7.56 10.3502 8.2 10.3502 8.96C10.3502 9.82 9.80023 11.1 9.51023 12.29C9.27023 13.29 10.0102 14.1 11.0002 14.1C12.7802 14.1 14.1402 12.23 14.1402 9.53C14.1402 7.13 12.4202 5.47 9.96023 5.47C9.37582 5.44433 8.79227 5.53734 8.2448 5.74342C7.69733 5.94951 7.19729 6.26438 6.77487 6.66904C6.35245 7.07371 6.01641 7.55977 5.78702 8.09789C5.55763 8.63601 5.43966 9.21503 5.44023 9.8C5.44023 10.66 5.77023 11.58 6.18023 12.08C6.26023 12.18 6.27023 12.27 6.24023 12.37L5.96023 13.5C5.92023 13.68 5.81023 13.73 5.63023 13.64C4.37023 13.05 3.59023 11.24 3.59023 9.76C3.59023 6.61 5.89023 3.72 10.2102 3.72C13.6702 3.72 16.3802 6.18 16.3802 9.49C16.3802 12.94 14.2002 15.71 11.1802 15.71C10.1802 15.71 9.22023 15.18 8.90023 14.56L8.27023 16.93C7.97509 17.8577 7.55811 18.7421 7.03023 19.56C8.40406 19.9816 9.85261 20.1021 11.2772 19.9133C12.7018 19.7245 14.069 19.2309 15.2856 18.4661C16.5023 17.7014 17.5398 16.6833 18.3275 15.4814C19.1152 14.2795 19.6346 12.9219 19.8504 11.5011C20.0661 10.0804 19.9731 8.62979 19.5776 7.24822C19.1822 5.86664 18.4936 4.58652 17.5588 3.49506C16.6241 2.40359 15.465 1.52642 14.1607 0.923296C12.8563 0.320168 11.4373 0.00525257 10.0002 0Z"/>
  </symbol>
  <symbol id="play" viewBox="0 0 23 30">
    <path d="M23 15.0051L0 0C0 22.6144 0 11.5158 0 30L23 15.0051Z"/>
  </symbol>
  <symbol id="sound" viewBox="0 0 36 30">
    <path d="M18.3326 0C17.8816 0 17.4905 0.156374 17.1604 0.469123L8.48928 8.68426H1.66737C1.21531 8.68426 0.825273 8.84064 0.495164 9.15339C0.165055 9.46614 0 9.83665 0 10.2639V19.7361C0 20.1633 0.165055 20.5339 0.495164 20.8466C0.825273 21.1594 1.21636 21.3157 1.66737 21.3157H8.48928L17.1604 29.5309C17.4905 29.8436 17.8806 30 18.3326 30C18.7847 30 19.1747 29.8436 19.5048 29.5309C19.8349 29.2181 20 28.8486 20 28.4203V1.57968C20 1.15239 19.8349 0.781873 19.5059 0.469123C19.1768 0.156374 18.7857 0 18.3337 0H18.3326Z"/>
    <path d="M28.0399 18.515C28.7419 17.434 29.0929 16.266 29.0929 15.01C29.0929 13.754 28.7419 12.582 28.0399 11.492C27.3379 10.402 26.4099 9.63396 25.2529 9.18796C25.0879 9.10596 24.8809 9.06396 24.6339 9.06396C24.2049 9.06396 23.8329 9.21697 23.5189 9.52197C23.2049 9.82897 23.0479 10.203 23.0479 10.649C23.0479 10.996 23.1469 11.289 23.3459 11.528C23.5449 11.767 23.7829 11.974 24.0639 12.147C24.3439 12.32 24.6249 12.51 24.9059 12.717C25.1869 12.924 25.4259 13.216 25.6239 13.596C25.8219 13.976 25.9209 14.447 25.9209 15.008C25.9209 15.569 25.8219 16.04 25.6239 16.42C25.4259 16.8 25.1869 17.093 24.9059 17.299C24.6249 17.505 24.3439 17.696 24.0639 17.869C23.7829 18.042 23.5439 18.249 23.3459 18.488C23.1479 18.727 23.0479 19.021 23.0479 19.367C23.0479 19.813 23.2059 20.188 23.5189 20.494C23.8329 20.798 24.2039 20.953 24.6339 20.953C24.8809 20.953 25.0879 20.912 25.2529 20.829C26.4089 20.366 27.3379 19.594 28.0399 18.512V18.515Z"/>
    <path d="M33.8744 22.1208C35.2915 19.9463 36 17.5714 36 14.999C36 12.4276 35.2915 10.0547 33.8744 7.87713C32.4574 5.70262 30.5822 4.11727 28.2497 3.12618C28.0337 3.04274 27.8167 3 27.5997 3C27.1667 3 26.7913 3.15976 26.4744 3.47927C26.1574 3.79878 26 4.17629 26 4.61384C26 5.26914 26.325 5.76469 26.975 6.1015C27.9075 6.58891 28.5414 6.95828 28.8744 7.21063C30.1078 8.11829 31.0707 9.25592 31.762 10.6255C32.4534 11.9952 32.7996 13.4523 32.7996 15C32.7996 16.5457 32.4534 18.0038 31.762 19.3745C31.0707 20.7441 30.1078 21.8817 28.8744 22.7894C28.5414 23.0417 27.9075 23.4111 26.975 23.8985C26.325 24.2353 26 24.7298 26 25.3862C26 25.8227 26.1585 26.2012 26.4744 26.5207C26.7903 26.8402 27.1738 27 27.6239 27C27.8238 27 28.0327 26.9573 28.2487 26.8738C30.5811 25.8817 32.4574 24.2984 33.8734 22.1219L33.8744 22.1208Z"/>
  </symbol>
  <symbol id="screen" viewBox="0 0 36 36">
    <path d="M31.744 31.7534H23.2432V35.9999H35.9995V23.2402H31.744V31.7534Z"/>
    <path d="M4.25546 23.2402H0V35.9999H12.7563V31.7534H4.25546V23.2402Z"/>
    <path d="M0 12.7597H4.25546V4.25656H12.7563V0H0V12.7597Z" />
    <path d="M23.2432 0V4.25656H31.744V12.7597H35.9995V0H23.2432Z"/>
  </symbol>
  <symbol id="bigplay" viewBox="0 0 220 220">
    <path d="M110 8.89168C130.003 8.88778 149.558 14.816 166.191 25.9266C182.825 37.0372 195.79 52.831 203.446 71.3106C211.103 89.7901 213.107 110.125 209.206 129.744C205.304 149.363 195.672 167.384 181.528 181.528C167.384 195.672 149.363 205.304 129.744 209.206C110.125 213.107 89.7901 211.103 71.3106 203.446C52.8311 195.79 37.0372 182.825 25.9266 166.191C14.816 149.558 8.88783 130.003 8.89174 110C8.92833 83.1956 19.5925 57.4996 38.546 38.546C57.4996 19.5925 83.1956 8.92828 110 8.89168ZM110 0C88.2441 0 66.9767 6.45139 48.8873 18.5383C30.7979 30.6253 16.6989 47.805 8.37331 67.9048C0.0476618 88.0047 -2.1307 110.122 2.11367 131.46C6.35805 152.798 16.8345 172.398 32.2183 187.782C47.602 203.166 67.2022 213.642 88.5401 217.886C109.878 222.131 131.995 219.952 152.095 211.627C172.195 203.301 189.375 189.202 201.462 171.113C213.549 153.023 220 131.756 220 110C220 80.8262 208.411 52.8473 187.782 32.2183C167.153 11.5893 139.174 0 110 0Z"/>
    <path d="M167.954 110L76.5278 49.9119C76.6463 140.498 76.5278 96.0498 76.5278 170.088L167.954 110Z"/>
  </symbol>
  <symbol id="close" viewBox="0 0 27 27">
    <path d="M1 1L26 26"/>
    <path d="M26 1L1 26"/>
  </symbol>
  <symbol id="menu" viewBox="0 0 32 18">
    <rect width="32" height="2"/>
    <rect y="8" width="32" height="2"/>
    <rect y="16" width="32" height="2"/>
  </symbol>
  <symbol id="menuclose" viewBox="0 0 25 25">
    <rect width="33.2612" height="2.07882" transform="matrix(0.7068 0.707413 -0.7068 0.707413 1.47046 0)"/>
    <rect width="33.2612" height="2.07883" transform="matrix(0.707413 -0.706801 0.707413 0.706801 0 23.5093)"/>
  </symbol>
</svg>